<mxfile host="app.diagrams.net" modified="2024-03-26T14:48:03.931Z" agent="Mozilla/5.0 (Macintosh; Intel Mac OS X 10_15_7) AppleWebKit/537.36 (KHTML, like Gecko) Chrome/119.0.0.0 Safari/537.36" version="24.2.0" etag="hYyg5aL127h7kulkZahC" type="github">
  <diagram name="第 1 页" id="ZFMwlMnkT6BJbhxD0OrJ">
    <mxGraphModel>
      <root>
        <mxCell id="0" />
        <mxCell id="1" parent="0" />
      </root>
    </mxGraphModel>
  </diagram>
</mxfile>
